<svg width="65" height="65" viewBox="0 0 65 65" fill="none" xmlns="http://www.w3.org/2000/svg">
<path d="M62.9688 48.75H54.8438V40.625H50.7812V48.75H42.6562V52.8125H50.7812V60.9375H54.8438V52.8125H62.9688V48.75Z" fill="#CCCCCC"/>
<path d="M50.7812 10.1562H44.6875V8.125C44.6843 7.04855 44.2552 6.0171 43.4941 5.25593C42.7329 4.49476 41.7015 4.06571 40.625 4.0625H24.375C23.2985 4.06571 22.2671 4.49476 21.5059 5.25593C20.7448 6.0171 20.3157 7.04855 20.3125 8.125V10.1562H14.2188C13.1423 10.1595 12.1109 10.5885 11.3497 11.3497C10.5885 12.1109 10.1595 13.1423 10.1562 14.2188V56.875C10.1595 57.9515 10.5885 58.9829 11.3497 59.7441C12.1109 60.5052 13.1423 60.9343 14.2188 60.9375H34.5312V56.875H14.2188V14.2188H20.3125V20.3125H44.6875V14.2188H50.7812V32.5H54.8438V14.2188C54.8405 13.1423 54.4115 12.1109 53.6503 11.3497C52.8892 10.5885 51.8577 10.1595 50.7812 10.1562ZM40.625 16.25H24.375V8.125H40.625V16.25Z" fill="white"/>
</svg>
