<svg width="65" height="65" viewBox="0 0 65 65" fill="none" xmlns="http://www.w3.org/2000/svg">
<g clip-path="url(#clip0_263_140)">
<path d="M33.8542 32.3646C35.1632 30.9202 36.168 29.2726 36.8686 27.4219C37.5691 25.5712 37.9185 23.6528 37.9167 21.6667C37.9167 19.6806 37.5664 17.7622 36.8658 15.9115C36.1653 14.0608 35.1614 12.4132 33.8542 10.9688C36.5625 11.3299 38.8195 12.5261 40.625 14.5573C42.4306 16.5886 43.3333 18.9584 43.3333 21.6667C43.3333 24.375 42.4306 26.7448 40.625 28.7761C38.8195 30.8073 36.5625 32.0035 33.8542 32.3646ZM47.4636 54.1667C47.8698 53.8507 48.1858 53.4553 48.4115 52.9805C48.6372 52.5056 48.75 51.9757 48.75 51.3907V46.0417C48.75 44.4167 48.3889 42.8702 47.6667 41.4023C46.9445 39.9344 45.9965 38.6371 44.8229 37.5105C47.125 38.323 49.2583 39.3729 51.2227 40.6602C53.1872 41.9476 54.1685 43.7414 54.1667 46.0417V51.4584C54.1667 52.2257 53.9067 52.8694 53.3867 53.3894C52.8667 53.9094 52.2239 54.1685 51.4583 54.1667H47.4636ZM56.875 35.2084C56.1077 35.2084 55.464 34.9484 54.944 34.4284C54.424 33.9084 54.1649 33.2656 54.1667 32.5V29.7917H51.4583C50.691 29.7917 50.0473 29.5317 49.5273 29.0117C49.0073 28.4917 48.7482 27.8489 48.75 27.0834C48.75 26.316 49.01 25.6723 49.53 25.1523C50.05 24.6323 50.6928 24.3732 51.4583 24.375H54.1667V21.6667C54.1667 20.8993 54.4267 20.2557 54.9467 19.7357C55.4667 19.2157 56.1095 18.9566 56.875 18.9584C57.6424 18.9584 58.2861 19.2184 58.8061 19.7384C59.3261 20.2584 59.5852 20.9012 59.5833 21.6667V24.375H62.2917C63.059 24.375 63.7027 24.635 64.2227 25.155C64.7427 25.675 65.0018 26.3178 65 27.0834C65 27.8507 64.74 28.4944 64.22 29.0144C63.7 29.5344 63.0572 29.7935 62.2917 29.7917H59.5833V32.5C59.5833 33.2674 59.3233 33.9111 58.8033 34.4311C58.2833 34.9511 57.6406 35.2102 56.875 35.2084ZM21.6667 32.5C18.6875 32.5 16.1372 31.4393 14.0156 29.3177C11.8941 27.1962 10.8333 24.6459 10.8333 21.6667C10.8333 18.6875 11.8941 16.1372 14.0156 14.0157C16.1372 11.8941 18.6875 10.8334 21.6667 10.8334C24.6458 10.8334 27.1962 11.8941 29.3177 14.0157C31.4392 16.1372 32.5 18.6875 32.5 21.6667C32.5 24.6459 31.4392 27.1962 29.3177 29.3177C27.1962 31.4393 24.6458 32.5 21.6667 32.5ZM2.70834 54.1667C1.94098 54.1667 1.2973 53.9067 0.777301 53.3867C0.257301 52.8667 -0.00179618 52.2239 9.3714e-06 51.4584V46.5834C9.3714e-06 45.0487 0.395426 43.6376 1.18626 42.3502C1.97709 41.0629 3.02612 40.0816 4.33334 39.4063C7.13195 38.007 9.9757 36.9571 12.8646 36.2565C15.7535 35.5559 18.6875 35.2066 21.6667 35.2084C24.6458 35.2084 27.5799 35.5586 30.4688 36.2592C33.3577 36.9598 36.2014 38.0088 39 39.4063C40.309 40.0834 41.359 41.0656 42.1498 42.353C42.9406 43.6403 43.3352 45.0505 43.3333 46.5834V51.4584C43.3333 52.2257 43.0733 52.8694 42.5533 53.3894C42.0333 53.9094 41.3906 54.1685 40.625 54.1667H2.70834ZM21.6667 27.0834C23.1563 27.0834 24.4319 26.5525 25.4936 25.4909C26.5552 24.4292 27.0852 23.1545 27.0833 21.6667C27.0833 20.1771 26.5525 18.9015 25.4908 17.8398C24.4292 16.7782 23.1545 16.2482 21.6667 16.25C20.1771 16.25 18.9015 16.7809 17.8398 17.8425C16.7781 18.9042 16.2482 20.1789 16.25 21.6667C16.25 23.1563 16.7808 24.4319 17.8425 25.4936C18.9042 26.5552 20.1789 27.0852 21.6667 27.0834ZM5.41668 48.75H37.9167V46.5834C37.9167 46.0868 37.7921 45.6355 37.5429 45.2292C37.2938 44.823 36.967 44.507 36.5625 44.2813C34.125 43.0625 31.6649 42.1489 29.1823 41.5405C26.6997 40.932 24.1945 40.6268 21.6667 40.625C19.1389 40.625 16.6337 40.9302 14.1511 41.5405C11.6684 42.1507 9.20834 43.0643 6.77084 44.2813C6.36459 44.507 6.03689 44.823 5.78772 45.2292C5.53855 45.6355 5.41487 46.0868 5.41668 46.5834V48.75Z" fill="white"/>
</g>
<defs>
<clipPath id="clip0_263_140">
<rect width="65" height="65" fill="white"/>
</clipPath>
</defs>
</svg>
