<svg width="50" height="50" viewBox="0 0 50 50" fill="none" xmlns="http://www.w3.org/2000/svg">
<g clip-path="url(#clip0_250_13)">
<path d="M25.0004 23.125C19.3254 23.125 18.1754 14.525 18.1754 14.525C17.5004 10.05 19.5504 5 24.9254 5C30.3254 5 32.3754 10.05 31.7004 14.525C31.7004 14.525 30.6754 23.125 25.0004 23.125ZM25.0004 29.55L31.8004 25C37.7754 25 43.1004 30.825 43.1004 36.325V42.55C43.1004 42.55 33.9754 45.375 25.0004 45.375C15.8754 45.375 6.90039 42.55 6.90039 42.55V36.325C6.90039 30.7 11.7504 25.125 18.0754 25.125L25.0004 29.55Z" fill="#EB942D"/>
</g>
<defs>
<clipPath id="clip0_250_13">
<rect width="50" height="50" fill="white"/>
</clipPath>
</defs>
</svg>
