<svg width="153" height="148" viewBox="0 0 153 148" fill="none" xmlns="http://www.w3.org/2000/svg">
<path d="M140.999 0H-0.000976562V46.5H140.999V0ZM125.332 31H15.6657V15.5H125.332V31ZM90.0824 62C92.2757 62 93.999 63.705 93.999 65.875V77.5H46.999V65.875C46.999 63.705 48.7224 62 50.9157 62H90.0824ZM117.499 78.1975V54.25H133.166V78.1975C130.581 77.81 127.996 77.5 125.332 77.5C122.669 77.5 120.084 77.81 117.499 78.1975ZM78.3324 124C78.3324 129.425 79.3507 134.617 81.074 139.5H7.83236V54.25H23.499V124H78.3324ZM152.749 110.438L115.541 147.25L93.999 124L103.086 115.01L115.541 127.333L143.662 99.51L152.749 110.438Z" fill="white"/>
</svg>
