<svg width="42" height="42" viewBox="0 0 42 42" fill="none" xmlns="http://www.w3.org/2000/svg">
<rect width="42" height="42" fill="#3F6D57"/>
<path d="M22.75 14V7.00001C22.75 6.50417 22.918 6.08826 23.254 5.75226C23.59 5.41626 24.0053 5.24884 24.5 5.25001H35C35.4958 5.25001 35.9118 5.41801 36.2478 5.75401C36.5838 6.09001 36.7512 6.50534 36.75 7.00001V14C36.75 14.4958 36.582 14.9118 36.246 15.2478C35.91 15.5838 35.4947 15.7512 35 15.75H24.5C24.0042 15.75 23.5883 15.582 23.2523 15.246C22.9163 14.91 22.7488 14.4947 22.75 14ZM5.25001 21V7.00001C5.25001 6.50417 5.41801 6.08826 5.75401 5.75226C6.09001 5.41626 6.50534 5.24884 7.00001 5.25001H17.5C17.9958 5.25001 18.4118 5.41801 18.7478 5.75401C19.0838 6.09001 19.2512 6.50534 19.25 7.00001V21C19.25 21.4958 19.082 21.9118 18.746 22.2478C18.41 22.5838 17.9947 22.7512 17.5 22.75H7.00001C6.50417 22.75 6.08826 22.582 5.75226 22.246C5.41626 21.91 5.24884 21.4947 5.25001 21ZM22.75 35V21C22.75 20.5042 22.918 20.0883 23.254 19.7523C23.59 19.4163 24.0053 19.2488 24.5 19.25H35C35.4958 19.25 35.9118 19.418 36.2478 19.754C36.5838 20.09 36.7512 20.5053 36.75 21V35C36.75 35.4958 36.582 35.9118 36.246 36.2478C35.91 36.5838 35.4947 36.7512 35 36.75H24.5C24.0042 36.75 23.5883 36.582 23.2523 36.246C22.9163 35.91 22.7488 35.4947 22.75 35ZM5.25001 35V28C5.25001 27.5042 5.41801 27.0883 5.75401 26.7523C6.09001 26.4163 6.50534 26.2488 7.00001 26.25H17.5C17.9958 26.25 18.4118 26.418 18.7478 26.754C19.0838 27.09 19.2512 27.5053 19.25 28V35C19.25 35.4958 19.082 35.9118 18.746 36.2478C18.41 36.5838 17.9947 36.7512 17.5 36.75H7.00001C6.50417 36.75 6.08826 36.582 5.75226 36.246C5.41626 35.91 5.24884 35.4947 5.25001 35Z" fill="#F8C7C7"/>
</svg>
