<svg width="61" height="61" viewBox="0 0 61 61" fill="none" xmlns="http://www.w3.org/2000/svg">
<path d="M54.2222 0C56.0198 0 57.7438 0.714085 59.0148 1.98516C60.2859 3.25624 61 4.9802 61 6.77778V54.2222C61 56.0198 60.2859 57.7438 59.0148 59.0148C57.7438 60.2859 56.0198 61 54.2222 61H6.77778C4.9802 61 3.25624 60.2859 1.98516 59.0148C0.714085 57.7438 0 56.0198 0 54.2222V6.77778C0 4.9802 0.714085 3.25624 1.98516 1.98516C3.25624 0.714085 4.9802 0 6.77778 0H54.2222ZM46.4278 21.5194C47.1733 20.8078 47.1733 19.6217 46.4278 18.91L42.09 14.5722C41.9216 14.3957 41.7192 14.2551 41.4949 14.1591C41.2707 14.0631 41.0292 14.0136 40.7853 14.0136C40.5413 14.0136 40.2999 14.0631 40.0756 14.1591C39.8514 14.2551 39.6489 14.3957 39.4806 14.5722L36.0917 17.9611L43.0389 24.9083L46.4278 21.5194ZM13.5556 40.4633V47.4444H20.5367L41.0733 26.9078L34.0922 19.9267L13.5556 40.4633Z" fill="black" fill-opacity="0.5"/>
</svg>
