<svg width="42" height="33" viewBox="0 0 42 33" fill="none" xmlns="http://www.w3.org/2000/svg">
<path d="M37.5234 22.391L31.0961 27.5473H31.08C31.064 27.573 31.0318 27.5859 30.9997 27.6117L30.9515 27.6375L30.8872 27.6762L30.839 27.702L30.7908 27.7277H30.7265L30.6783 27.7535H30.6141L30.5498 27.7793H29.8106L29.7464 27.7535H29.6821L29.6339 27.7277H29.5696L29.5214 27.702L29.4732 27.6762L29.4089 27.6375L29.3607 27.6117L29.2804 27.5473H29.2643L22.837 22.391C22.6321 22.1906 22.5273 21.9363 22.5432 21.6774C22.559 21.4185 22.6943 21.1736 22.9228 20.9903C23.1513 20.807 23.4565 20.6984 23.7793 20.6857C24.102 20.673 24.4191 20.757 24.6688 20.9215L28.8948 24.3246V14.4375C28.8948 14.164 29.0302 13.9017 29.2713 13.7083C29.5123 13.5149 29.8393 13.4062 30.1802 13.4062C30.5211 13.4062 30.8481 13.5149 31.0892 13.7083C31.3302 13.9017 31.4657 14.164 31.4657 14.4375V24.3246L35.6916 20.9215C35.9414 20.757 36.2584 20.673 36.5812 20.6857C36.9039 20.6984 37.2092 20.807 37.4376 20.9903C37.6661 21.1736 37.8014 21.4185 37.8173 21.6774C37.8331 21.9363 37.7284 22.1906 37.5234 22.391ZM19.8966 15.4688H8.32745C7.98652 15.4688 7.65956 15.5774 7.41849 15.7708C7.17742 15.9642 7.04199 16.2265 7.04199 16.5C7.04199 16.7735 7.17742 17.0358 7.41849 17.2292C7.65956 17.4226 7.98652 17.5312 8.32745 17.5312H19.8966C20.2375 17.5312 20.5644 17.4226 20.8055 17.2292C21.0466 17.0358 21.182 16.7735 21.182 16.5C21.182 16.2265 21.0466 15.9642 20.8055 15.7708C20.5644 15.5774 20.2375 15.4688 19.8966 15.4688ZM8.32745 9.28125H30.1802C30.5211 9.28125 30.8481 9.1726 31.0892 8.9792C31.3302 8.78581 31.4657 8.5235 31.4657 8.25C31.4657 7.9765 31.3302 7.71419 31.0892 7.5208C30.8481 7.3274 30.5211 7.21875 30.1802 7.21875H8.32745C7.98652 7.21875 7.65956 7.3274 7.41849 7.5208C7.17742 7.71419 7.04199 7.9765 7.04199 8.25C7.04199 8.5235 7.17742 8.78581 7.41849 8.9792C7.65956 9.1726 7.98652 9.28125 8.32745 9.28125ZM17.3256 23.7188H8.32745C7.98652 23.7188 7.65956 23.8274 7.41849 24.0208C7.17742 24.2142 7.04199 24.4765 7.04199 24.75C7.04199 25.0235 7.17742 25.2858 7.41849 25.4792C7.65956 25.6726 7.98652 25.7812 8.32745 25.7812H17.3256C17.6666 25.7812 17.9935 25.6726 18.2346 25.4792C18.4757 25.2858 18.6111 25.0235 18.6111 24.75C18.6111 24.4765 18.4757 24.2142 18.2346 24.0208C17.9935 23.8274 17.6666 23.7188 17.3256 23.7188Z" fill="#111111" fill-opacity="0.77"/>
</svg>
