<svg width="44" height="50" viewBox="0 0 44 50" fill="none" xmlns="http://www.w3.org/2000/svg">
<path d="M38.1357 11.3868L21.9293 5.13675C21.7208 5.05907 21.4964 5.05907 21.2878 5.13675L5.09833 11.3868H5.06457L4.9464 11.4649H4.92952L4.81135 11.543C4.81135 11.5482 4.80957 11.5532 4.8064 11.5568C4.80324 11.5605 4.79894 11.5625 4.79446 11.5625L4.67629 11.6797L4.59188 11.7969C4.59188 11.8021 4.59011 11.8071 4.58694 11.8107C4.58377 11.8144 4.57948 11.8164 4.575 11.8164L4.50748 11.9532C4.50748 11.9727 4.49059 11.9727 4.49059 11.9922L4.43995 12.1289C4.41894 12.1775 4.40742 12.2309 4.40619 12.2852C4.39235 12.3423 4.38665 12.4017 4.3893 12.461V28.086C4.3893 28.3968 4.49602 28.6948 4.68598 28.9146C4.87593 29.1344 5.13357 29.2579 5.4022 29.2579C5.67084 29.2579 5.92848 29.1344 6.11843 28.9146C6.30839 28.6948 6.4151 28.3968 6.4151 28.086V14.1211L12.9483 16.6407C11.7661 18.6429 11.1363 21.0127 11.142 23.4375C11.1432 25.6263 11.6571 27.7738 12.6292 29.6516C13.6012 31.5294 14.995 33.0672 16.6623 34.1016C13.2263 35.4103 10.2787 38.0351 8.30585 41.543C8.23269 41.6725 8.1823 41.8175 8.15755 41.9695C8.13281 42.1216 8.13419 42.2778 8.16162 42.4292C8.18906 42.5807 8.242 42.7244 8.31744 42.8521C8.39287 42.9799 8.48932 43.0892 8.60128 43.1739C8.71323 43.2585 8.8385 43.3168 8.96993 43.3454C9.10136 43.3741 9.23638 43.3725 9.36727 43.3407C9.49817 43.309 9.62238 43.2477 9.73281 43.1605C9.84325 43.0732 9.93774 42.9616 10.0109 42.8321C11.2657 40.5951 12.9841 38.7566 15.0096 37.4838C17.0351 36.2109 19.3036 35.5442 21.6086 35.5442C23.9136 35.5442 26.1821 36.2109 28.2076 37.4838C30.2331 38.7566 31.9515 40.5951 33.2063 42.8321C33.3031 42.993 33.4318 43.1248 33.5815 43.2165C33.7313 43.3082 33.8978 43.3572 34.0673 43.3594C34.2605 43.3609 34.4494 43.2927 34.6075 43.1641C34.7195 43.0808 34.8163 42.9728 34.8922 42.8463C34.9681 42.7197 35.0218 42.577 35.05 42.4265C35.0782 42.2759 35.0805 42.1204 35.0567 41.9688C35.0329 41.8172 34.9835 41.6725 34.9113 41.543C32.9385 38.0351 29.9909 35.4103 26.5549 34.1016C28.2222 33.0672 29.616 31.5294 30.588 29.6516C31.5601 27.7738 32.074 25.6263 32.0752 23.4375C32.0809 21.0127 31.4511 18.6429 30.2689 16.6407L38.1357 13.6133C38.3384 13.5363 38.5148 13.3871 38.6399 13.1872C38.765 12.9873 38.8324 12.7468 38.8324 12.5C38.8324 12.2532 38.765 12.0127 38.6399 11.8128C38.5148 11.6129 38.3384 11.4638 38.1357 11.3868ZM30.0494 23.4375C30.049 24.9929 29.7274 26.5257 29.1115 27.9083C28.4956 29.2908 27.6032 30.4832 26.5085 31.3861C25.4138 32.289 24.1486 32.8764 22.818 33.0992C21.4875 33.3221 20.1302 33.174 18.8592 32.6674C17.5881 32.1608 16.44 31.3102 15.5105 30.1865C14.5809 29.0628 13.8968 27.6985 13.5151 26.2071C13.1334 24.7157 13.0652 23.1404 13.316 21.6123C13.5668 20.0842 14.1295 18.6476 14.9572 17.4219L21.2878 19.8633C21.4964 19.941 21.7208 19.941 21.9293 19.8633L28.26 17.4219C29.4155 19.1427 30.0449 21.2585 30.0494 23.4375ZM28.2431 14.961L21.6086 17.5196L14.9741 14.961L8.60972 12.5L21.6086 7.4805L34.6075 12.5L28.2431 14.961Z" fill="#F8F8F8"/>
</svg>
